<svg xmlns="http://www.w3.org/2000/svg" width="500" height="500" style="width:100%;height:100%;transform:translate3d(0,0,0);content-visibility:visible" viewBox="0 0 500 500"><defs><clipPath id="a"><path d="M0 0h500v500H0z"/></clipPath></defs><g clip-path="url(#a)"><g fill="#EBE6EF" style="display:block"><path d="M432.908 250.837c0 101.552-82.325 183.877-183.877 183.877S65.154 352.39 65.154 250.837 147.479 66.96 249.03 66.96s183.877 82.325 183.877 183.877z"/><path d="M-87.998-19.669c0-65.468 35.981-122.523 89.24-152.497-75.599 19.295-131.5 87.845-131.5 169.453 0 96.582 78.296 174.879 174.878 174.879 31.115 0 60.325-8.137 85.638-22.383a175.206 175.206 0 0 1-43.377 5.426c-96.582 0-174.879-78.297-174.879-174.878z" opacity=".5" style="mix-blend-mode:multiply" transform="translate(202.162 253.68) scale(1.05146)"/></g><path fill="none" stroke="#121331" stroke-linecap="round" stroke-linejoin="round" stroke-width="4.5" d="M0-48.907 49.609.702 0 50.31" style="display:block" transform="matrix(0 -2.1 2.1 0 250 289.876)"/><path fill="none" style="display:none"/><path style="display:none"/></g></svg>